<svg xmlns="http://www.w3.org/2000/svg" width="160" height="59" fill="none" viewBox="0 0 160 59"><title>Frontend Horse</title><path fill="#F8574E" d="M24.05 5.68c.02.03.05.06.1.08.39.31.78.6 1.12.96.39.4.75.8 1.11 1.22.76.83 1.51 1.64 2.42 2.34.78.6 1.63 1.1 2.47 1.61.2.13.41.23.6.4-.03 0 .23.28.2.28l-4.75 7.58c-.08.23-.42-.26-.5-.03a6.75 6.75 0 00-1.76-.26c-.86 0-1.71.1-2.55.16-.88.08-1.74.05-2.57-.26-.23-.08-.46-.18-.72-.2-.26-.06-.37 0-.45.25l-.07.24c-.26 1.14.07 2.44.33 3.53a35.38 35.38 0 001.82 5.37c.52 1.2.94 2.44 1.04 3.74l.13.06c.75.23 1.38.49 2.03.96.7.49 1.42.93 2.2 1.35.91.49 1.9.83 2.86 1.27.68.31 1.38.62 1.95 1.14.39.34.7.76.8 1.3a2 2 0 01.08.78c0 .2 0 .44-.03.65-.05.52-.13 1.01-.18 1.53-.05.57-.02 1.14-.02 1.72 0 .77.1 1.55.1 2.33a3.8 3.8 0 01-.96 2.65 20 20 0 00-1.64 1.98c-.23.33-.49.64-.85.85-.21-.41-.42-.83-.65-1.24-.31-.6-.5-1.25-.7-1.87a.48.48 0 01-.06-.19c-.1-.15-.15-.36-.28-.49.1-.16.26-.26.41-.36.24-.13.47-.16.73-.21.42-.08.86-.2 1.27-.29.24-.02.19-.13.16-.28l-.08-.63c-.02-.52-.05-1.06-.1-1.58-.08-1.04-.16-2.1-.18-3.14 0-.18.02-.34.05-.5.05-.33.13-.64.28-.93.06-.08.06-.08-.05-.1a4.52 4.52 0 01-.57-.13c-.67-.1-1.35-.24-2.02-.42-.55-.13-1.07-.34-1.61-.5-.81-.25-1.61-.54-2.45-.75-.49-.13-.96-.18-1.48-.15-.1 0-.15.02-.18.13a43.8 43.8 0 00-2.62 10.31 24.1 24.1 0 00-.1 3.87c.05.78.05 1.58.28 2.33.16.45.4.84.7 1.17.1.1.18.21.29.34.23.31.44.62.52 1.01-1.07.19-2.16.4-3.25.26-.28.06-.6.03-.88.19a1.1 1.1 0 01-.2-.68c0-.93-.09-1.9-.17-2.83-.07-.83-.02-1.66-.05-2.5a67 67 0 01-.08-6.85c.03-.36.19-4.5.19-4.5-.57.03-1.15 0-1.7.06-.46.05-.93.05-1.4.05-.46.03-.95.05-1.42.03-1.69-.05-3.35-.1-5.04-.08-.78 0-1.56.03-2.34-.1a3.51 3.51 0 01-1.97-.94 3.7 3.7 0 01-.86-1.43 14.12 14.12 0 01-.7-3.9c-.08-1.37-.08-2.75.08-4.15.18-1.71.67-3.71 2.47-4.39.54-.2 1.11-.26 1.66-.34.47-.05.93-.1 1.37-.2.42-.1.84-.24 1.2-.5.03 0 .08 0 .1-.02.44-.13.78-.99.96-1.33a51.72 51.72 0 002.39-5.53c.42-1.14.63-2.31.89-3.5.2-.97.44-1.9.7-2.86.33-1.22.78-2.42 1.37-3.53a9.6 9.6 0 011.07-1.61c.05-.08.13-.16.2-.24.32-.33.65-.67.89-1.04 0-.02.02-.02.02-.05A11.2 11.2 0 0117.37.44l.16-.16c.26-.23.62-.26.86.03.2.26.28.57.33.88.13.78.21 1.56.03 2.34-.13.34-.34.67-.42 1.04h-.02.02c.03.18.06.23.37.26.75.13 1.53.08 2.28.02.37-.02.68-.18 1.04-.15.42.08.83.18 1.22.39.23.26.52.41.8.6z"></path><path fill="#fff" d="M22.04 10.88c.19.49.45.93.94 1.2.31.15.67.15 1.01.07.47-.13.96-.6 1.07-1.1.07-.43.05-.95-.03-1.4a2.77 2.77 0 00-.42-1.14c-.41-.67-1.35-.98-2.05-.49-.85.57-.83 1.95-.52 2.86z"></path><path fill="#F2F3F4" d="M31.57 22.15s-.38.23-.51.15c-.13-.07-.16-.18-.21-.3-.05-.14-.52-1.54-.6-1.67-.05.2.18 1.3.16 1.35-.03.08-.06.2-.42.2-.34 0-.39-.17-.39-.17l-.39-2.96 1.72-.29.7 3.58-.05.1z"></path><path fill="#EFD3B7" d="M29.94 21.94c-.08.26-.13.26-.37.13-.05-.02-.1-.08-.18-.1-.36-.26-.65-.57-.98-.86a6.88 6.88 0 00-1.61-.99c.15-.44.26-.88.44-1.3.18-.44.44-.83.7-1.24.44-.7.9-1.4 1.37-2.08.4-.57.8-1.12 1.22-1.66.21-.29.45-.55.68-.8.18-.24.42-.58.65-.76.05.03.1.03.16.08.8.52 1.58 1.09 2.2 1.82.5.57.94 1.16 1.25 1.87.36.78.57 1.58.44 2.46-.08.6-.31 1.15-.62 1.67a9.14 9.14 0 01-1.43 1.87c-.44.41-.94.67-1.56.62a1.08 1.08 0 01-.96-.8 8.25 8.25 0 00-.88-2.16c-.05-.1-.1-.24-.24-.29-.2-.1-.2.16-.2.47 0 .36-.03.88-.03 1.04l-.05 1.01zm4.23-5.63c-.03 0-.03-.03-.05-.03-.16-.08-.29-.18-.47-.05-.13.08-.08.26-.05.41.1.44.36.8.7 1.1.1.07.2.18.36.1.13-.08.13-.24.13-.4a1.64 1.64 0 00-.62-1.13z"></path><path fill="#4D3C3B" d="M25.03 10.3c-.08-.35-.26-.67-.57-.8-.31-.13-.68.03-.83.37-.21.5-.18.98.02 1.45.19.37.55.5.96.37.24-.08.37-.45.42-.65.05-.24.05-.5 0-.73zm-1.4-.07c0-.13.02-.23.13-.34.05-.05.1-.05.15-.02.08.02.03.1.03.15-.03.08-.08.16-.1.24-.03.02-.06.07-.08.1-.03.03-.05.05-.08.05s-.03-.02-.03-.05c-.02-.05-.02-.08-.02-.13z"></path><path fill="#EADED3" d="M17.06 58.35l.31-.02h.5c.23 0 .44 0 .67-.03l.88-.08c.16-.02.31-.02.47-.05.08 0 .16-.03.23-.03.06 0 .08-.02.13 0 .03 0 .08 0 .1.03v.03l.11.28c.05.08-.03.13-.1.16-.16.05-.31.1-.5.13-.85.15-1.74.13-2.6.13-.18 0-.28-.08-.33-.26-.03-.05-.05-.21-.05-.21.02-.13.1-.08.18-.08z"></path><path fill="#4D3C3B" d="M34.8 17.45a1.7 1.7 0 00-.63-1.17c-.03 0-.03-.03-.05-.03-.16-.08-.29-.18-.47-.05-.13.1-.08.29-.05.44.1.44.36.8.7 1.1.1.07.2.17.36.1.13-.06.13-.21.13-.4zm-18.13 39.5c1.09.1 2.18-.08 3.24-.26l.24.75c.02.13.34.68.1.73-.57.13-1.17.13-1.74.16-.41.02-.85.05-1.27.05-.18 0-.42.05-.6.02-.15-.02-.26-.18-.3-.28-.2-.34-.35-.68-.55-.99.26-.15.57-.13.88-.18z"></path><path fill="#EFD3B7" d="M16.85 2.8l-.08.7c-.02.52-.07 1.04-.05 1.59 0 .1.03.2.03.31.02.16.15.23.3.16.42-.21.74-.5.97-.91.23-.42.44-.76.5-1.22.02-.37.1-.73.07-1.04a3.2 3.2 0 00-.2-.96c-.11-.26-.19-.73-.5-.76-.31-.02-.5.42-.62.65-.1.18-.18.4-.24.6-.07.31-.15.6-.18.88z"></path><path fill="#4D3C3B" d="M15.58 14.9c.02-.13.05-.23.05-.36.08-.5.16-.99.2-1.48.06-.5.09-.96.14-1.46v-.23c0-.1 0-.2-.03-.31-.1-.78-.28-1.56-.34-2.36-.05-.76-.18-1.48-.28-2.21-.03-.29-.05-.55-.05-.83l.02-.78c0-.18.03-.4.05-.57a5.57 5.57 0 00-3.06 2.41c-.62.88-.9 1.9-1.12 2.94a20.12 20.12 0 00-.33 3.06c0 .23-.08.44-.16.68a85.92 85.92 0 00-2.1 6.15 8.01 8.01 0 01-.73 1.85c-.26.41-.6.75-.88 1.14-.19.23-.37.47-.44.75-.08.29 0 .52.25.68.03 0 .08 0 .1-.03 1.15-.34 2.27.6 2.5 1.66.05.26.08.5.1.76.03.13.06.28.14.39.15.18.44.15.64.07.52-.23.78-.78 1.04-1.3.32-.6.68-1.19.89-1.84.23-.78.15-1.64.13-2.44-.03-.75-.06-1.56-.34-2.26l-.26-.65c0-.05-.05-.13 0-.16.05-.02.08.06.1.08.31.44.52.91.68 1.43.26.65.31 1.38.62 2.03.03.07.08.15.13.18.08.08.2.05.31.02.1-.05.18-.13.26-.2.76-.86.76-1.85.78-2.91 0-.65 0-1.27-.05-1.9a4.55 4.55 0 00-.36-1.66c-.4-.75-.83-1.48-1.12-2.29-.16-.41-.31-.83-.42-1.27-.02-.05-.05-.15.03-.2.08-.03.1.05.16.07.36.34.57.78.77 1.25.32.73.5 1.48.78 2.23.1.31.24.63.42.91.13.18.23.16.36-.02.26-.32.34-.68.42-1.02z"></path><path fill="#EADED3" d="M25.6 48.95c.06-.03.1-.08.13-.08.08.03.13.08.16.16.02.1.08.2.1.3.05.17.1.32.13.48.05.2.13.44.21.65l.23.65c.03.07.08.18.1.26l.11.25c0 .03.03.06.03.08l.08.18c.02.06.02.1.07.16l.03.03v.07l-.13.08-.13.1c-.08.08-.13.03-.18-.05-.1-.13-.18-.28-.24-.44-.36-.8-.57-1.63-.8-2.46-.08-.21-.05-.32.1-.42z"></path><path fill="#4D3C3B" d="M18.7 3.63c-.14.34-.34.68-.42 1.04.02.18.05.23.36.26.76.13 1.53.08 2.29.03.36-.03.67-.19 1.04-.16.49-.29.9-.62 1.24-1.07.13-.15.24-.33.29-.54a.73.73 0 00-.08-.57c-.31-.55-.75-.65-1.27-.26-.13.1-.24.23-.34.36-.13.18-.29.37-.44.55-.1.1-.2.15-.36.15-.76-.05-1.48 0-2.21.21h-.1zm8.2 48.47c-.03-.06-.03-.11-.05-.16l-.23-.6c-.16-.42-.3-.83-.42-1.25-.1-.33-.23-.65-.36-.98-.1-.29-.24-.55.02-.8.26-.3.55-.55.78-.87.13.13.18.34.29.5.02.05.05.13.05.18.23.62.39 1.27.7 1.87.2.41.42.83.65 1.25-.26.18-.55.36-.78.57-.16.15-.42.23-.62.3-.03.04-.03 0-.03-.02z"></path><path fill="#F8574E" d="M119.76 22.22a3.83 3.83 0 00-4.74.47 4.75 4.75 0 00-1.38 5.5l6.12-5.97zm34.11-2.3l.1-6.54c-.56-.2-1.38-.26-1.35-1.35.03-.78.38-1.27 1.44-1.47.54-.1 1.79-.12 2.5.2.56.24.83.56.82 2.38 0 3.38.06 7.55.06 10.47 0 1.27-.03 3.39.07 5.1.13 1.96.3 1.73.9 2.91.65 1.33 1.03 1.87.55 2.66-.26.42-1 .71-1.94.52-.65-.13-.93-.92-1.16-1.55-1.15.86-1.8 1.4-3.09 1.67-1.75.36-3 .13-3.74-.07-1.05-.28-3.1-.93-3.8-1.83-.95 1.1-1.73 1.94-3.57 2-1.21.04-2.13-.15-2.97-.83-.79-.64-1.91-1.76-1.82-4.66.04-1.31.45-2.93.7-4.17.2-.98.3-1.6.33-2.3a.58.58 0 00-.92-.49l-4 3.07c-.13 2.62.05 4.92-.2 6.9-.14 1.1-.56 2.22-2.29 2.19-2.02-.04-1.95-2.16-1.85-3 .2-1.77.28-2.59.41-5.08.06-1.1.04-1.56.1-3.58a8.01 8.01 0 00-1.88 3.1c-.93 2.54-1.35 3.73-2.2 5.3-1.16 2.15-3.5 3.12-5.26 3.38-1.39.2-3.28-.05-4.93-.62-.69-.24-1.63-.87-2.46-1.32-.93.8-1.68 1.62-2.6 2.02-1.14.5-2.14.5-3.15.16-.63-.21-1.17-.83-1.81-1.54-.13.07-.65.43-.99.61a7.27 7.27 0 01-4.75.97c-2.35-.4-2.83-1.71-3.39-3.16-.54-1.38-.37-3.19 0-5.45.26-1.67.57-2.42.8-3.28.15-.64-.06-.86-.62-.75-1.29.24-4.31 3.55-4.7 3.87l-.12 1c-.2 1.57-.4 2.72-.55 3.88-.26 1.9-.19 2.9-1.73 3.39a2.28 2.28 0 01-2.52-.83c-.62-.85-.39-1.72-.06-3.26.4-1.89.56-2.27.85-4.34.1-.69.18-1.4.21-2.24.01-.24 0-.67-.1-.7-.04 0-.09.03-.43.42-.85.97-2.35 3.25-3.51 5.29-.48.84-1.33 2.16-2.53 3.6a6.06 6.06 0 01-4.57 2.3c-1.88.07-4.53-.46-6.02-2.17-1.39-1.59-1.52-3.89-1.09-6.62.48-3.01 3.26-5.71 6.45-6.55a6.1 6.1 0 014.97.8c.63.4 1.68 1.62 2.38 3.7 0 0 1.07-2.08 1.52-2.7a4.47 4.47 0 013.26-1.98c1.73-.17 3.14.64 3.47 2.7.06.41.07 1.1.11 1.74 0 0 1.9-2 3.24-3.06a4.4 4.4 0 013.76-1.01c1.03.2 1.65.92 2.03 1.84.44 1.05.21 2 .07 3.26-.24 2.11-.34 2.77-.53 4.44-.11 1.01-.04 2.15.74 2.56.8.42 1.74.07 2.24-.2.83-.45 1.34-.94 1.33-2.33-.02-1.95.02-3.11.17-4.88.12-1.51.44-2.48.52-3.37-.54.27-.83.45-1.4.7-.9.4-1.8.1-2.15-.77-.27-.68.03-1.2.33-1.43.62-.46 1.37-.83 1.78-1.2a7.83 7.83 0 002.32-4.2c.36-1.5.66-2.99 1.05-3.58.21-.32.71-.51 1.23-.45.48.05.88.18 1.14.76.2.43.18.79.07 1.66-.1.82-.2 1.46-.26 2.13-.06.52-.1.98-.12 1.26l1.85-.88c.6-.3.95-.5 1.25-.58a1.3 1.3 0 011.5.59c.32.58.25 1.36-.22 1.87-.22.24-2.1 1.08-2.83 1.41-.95.43-2.4 1.21-2.4 1.21a23.22 23.22 0 00-.92 5.38c-.1 1.54-.15 3.52.16 4.52.32 1.05.47 1.33.83 1.61.9.72 1.34.44 1.8.18.31-.16.46-.3.84-.6-.12-.98-.37-2.21-.35-3.08a10.8 10.8 0 011.32-4.99c1.64-3.05 5.08-3.83 7.25-3.47 1.38.22 2.5.59 3.97 2 .75.7.6 1.95.06 2.51-1.32 1.4-4.03 3.72-7.22 7.1 0 0 2.4 1.85 4.8.89 1.89-.76 2.62-2.74 3.37-4.3.83-1.73 1.08-3.48 1.56-4.35a8.51 8.51 0 012.08-2.7 3.9 3.9 0 013.08-.92c1.25.12 1.8.83 2.04 1.9.09.41.04 1.23.15 2.04 1.1-.98 2.05-1.67 2.85-2.35 1.92-1.63 2.8-1.53 3.64-1.53.85 0 1.46.33 1.96 1 .97 1.31.58 3.1.46 4.09-.12.93-.38 2.7-.5 3.74-.1.83-.3 2.59.4 3.2.35.33.96.38 1.66-.02.46-.26.73-.86.73-.86-.3-2.2-.53-2.63-.2-4.89.28-2.02.7-2.78 1.6-3.84a7.86 7.86 0 014.12-2.59c1.65-.29 3.2.1 4.42.7zM76.33 31.56c1.5.02 2.48-.68 3.25-2.08.68-1.24.51-2.6.5-3.7-.04-1.63-1.15-3.59-2.83-3.59-1.93 0-2.75.56-3.6 1.67a5.56 5.56 0 00-1 5.1c.34 1.45 1.43 2.58 3.68 2.6zm77.62-8.49c-.9-.54-1.61-1-2.49-1-1.12 0-2.43.27-3.17 1.25a5.48 5.48 0 00-1.22 3.78c0 1.54.07 2.82.98 3.73.76.8 2.04 1.09 3.22 1.09 1.41 0 1.8-.45 2.68-1.09v-7.76zM52.52 49.6c.71-.01 1.42.02 2.26 0 .31 0 .75.1.79-.74.14-2.9.23-8.85.23-11.56 0-4.29.03-8.4 0-9.36-.68.27-1.98 1.06-2.58 1.36-.7.35-1.65.2-1.97-.43-.34-.66-.52-1.6.34-2.29.71-.57 1.75-1.35 2.52-2.27.77-.92 1.23-1.26 1.46-3.06.24-1.8.49-6.54 1.08-9.36a10.6 10.6 0 013.27-5.62c2.45-2.06 5.7-1.97 7.85-1.4 1.9.52 3.77 1.93 4.53 4.95.4 1.61.03 2.83-.73 2.93-.75.1-1.66-.08-1.79-1.22a5.5 5.5 0 00-1.24-2.9c-.71-.68-1.79-1.39-3.9-1.16-2.27.25-4.99 1.92-5.35 7.27-.12 1.85-.25 6.09-.27 8.1l5.13-3.05c.77-.34 1.6-.26 1.95.39.35.64.3 1.74-.45 2.15-.88.48-4.58 2.52-6.58 3.75l.02.28c.03 1-.04 5.88-.01 10.06.03 4.84 0 8.5-.05 10.51-.06 2.26-.12 3.55-.53 4.63a5.43 5.43 0 01-1.5 1.8 4.7 4.7 0 01-2.51 1.1c-1.45.02-2.07-.03-3.12-.02-1.13.02-1.7-.34-1.29-1.14l1.66-3.22a.9.9 0 01.78-.48z"></path><path fill="#F8574E" d="M66.94 14.66c.02.34 0 2.82.01 3.58 2.78-2.58 7.7-4.76 9.95-4.65 2.25.11 2.88 1 3.18 2.18.32 1.27-.21 1.91-1.03 2.48-.59.4-2.02.48-2.58-.16-.48-.54-.45-1.1-.44-1.71 0 0-5.84 1.71-8.87 5.04V29c0 .26-.25.6-.46.76l-2.55 2.13c-.5.38-1.05.02-1.05-.6v-9.07c0-1.43.13-4.09.13-6.56 0-2.05.91-2.56 2.07-2.54 1.47.02 1.59.83 1.64 1.54zm39.08 33.35c-.08-.58.14-1.27 1.14-1.66.89-.33 1.64.2 1.99.84.99 1.85 1.26 2.8 2.4 3.36 1.86.94 3.37.24 3.91-.58.73-1.1.03-2.12-.9-2.66-1.73-1-2.14-.81-3.47-2.2-.94-.99-1.43-2.49-.99-3.62.78-2 2.03-3.09 4.52-3.09 1.78 0 3.06.62 3.83 1 1.5.73 1.97 1.25 1.67 2.26-.24.81-1.83.68-2.53.32-1.47-.75-1.8-1.29-2.8-1.24-1.34.06-2.22 1.74-.77 2.69 1.88 1.23 2.15 1.08 3.56 2.08a4.58 4.58 0 012.06 3.66c.1 1.62-.05 2.8-1.42 3.94-1.65 1.37-3.15 1.34-5.29 1.34-1.82 0-3.96-.71-4.95-1.86a9.7 9.7 0 01-1.96-4.58zm18.55.09c-1-1.5-.56-3.78 1.1-5.37 1.52-1.46 3.62-1.88 5.02-1.03l-6.12 6.4zm12.73-3.77a1.46 1.46 0 00-2.02.6c-1.13 2.13-1.91 5.21-4.32 6.18-2.4.95-4.48-.73-4.48-.73 2.47-2.75 5.57-5.9 6.88-7.29.54-.56.65-1.05.51-1.73-.34-1.67-2.05-2.73-3.72-2.84-3.04-.22-5.9.26-8.05 3.9a9.68 9.68 0 00-1.32 4.99c0 1.9 1.54 4.92 4.61 6.34 1.6.73 3.55.82 4.94.62a9.4 9.4 0 004.5-2.72c1.43-1.6 2.6-4.13 3.08-5.2a1.65 1.65 0 00-.61-2.12zm-31.7-5.83c-1.42.05-3.68 2.56-5.49 4.25.01-1.4.05-2.55-.39-3.25-.23-.38-.8-.64-1.24-.67-.24-.01-.9 0-1.4.42-.62.5-.96 1.07-1.35 1.75-.74 1.29-1.42 2.17-2.32 3.55-.31-1.67-.5-2.95-1.66-4.16a6.83 6.83 0 00-10.43 1.27c-.45.63-1.16 1.6-1.5 3.72-.18 1.1-.22 1.82-.32 2.6a3.84 3.84 0 01-.96 2.22c-.47.6-1.44.89-1.84.54-.53-.45-.4-2.21-.25-3.4.13-1.1.88-4.43.35-6.4-.34-1.29-1.47-1.77-2.42-2a4.6 4.6 0 00-3.88 1.2c-1.1 1.04-1.96 1.99-3.43 3.4l-.04-7.13-.02-2.9v-.21c0-.44-.5-.7-.85-.44l-2.26 2.1c-.39.28-.62.73-.64 1.21v1.4c-.06 3.67-.08 6.49-.22 9.82-.08 1.65-.17 3.82-.17 5.03 0 .19.06 1.23.68 1.71.54.43 1.74.42 2.4.04 1-.57.98-2.36 1.03-3.79.06-1.77.12-1.65.17-3.7.5-.43 1.26-1.22 2.43-2.32.77-.72 1.4-1.23 2.38-1.94a.4.4 0 01.64.3c.03.59 0 1.3-.1 2.15-.19 1.5-.75 3.1-.78 4.42a6 6 0 00.77 3.5c.52.93 1.5 1.64 2.85 1.64 1.39 0 2.85.07 4.03-1.26.5-.57.88-1.31 1.24-1.92.37.9 1.12 1.75 1.67 2.15 1.25.91 3.02 1.12 4.39 1.08 2.4-.08 3.37-.78 4.42-1.73 1.21-1.09 1.54-1.87 2.37-3.97.2-.52 2.2-3.16 3.48-5.09 0 0-.17 3.87-.17 4.44 0 2.59-.03 4.84.14 5.24.2.48.43 1.09 1.86 1.09.86 0 1.55-.52 1.58-1.3.04-1.46 0-5.73-.01-7.64 1.3-1.11 3.26-2.85 4.47-3.83 0 1.03.68 2.37 1.86 2.36 1.66-.02 1.92-1.64 1.92-2.73 0-1.23-.75-2.9-3-2.82zm-15.17 9.2c-.32 1.43-.86 2.68-2.36 3.21-1.71.61-3.33.35-4.38-1.3-1.17-1.84-.93-3.14-.52-4.58.53-1.9 1.16-2.78 2.7-3.22 2.31-.65 3.93.65 4.44 2.3a5.7 5.7 0 01.12 3.58z"></path></svg>