<?xml version="1.0" encoding="utf-8"?>
<!-- Generator: Adobe Illustrator 25.4.1, SVG Export Plug-In . SVG Version: 6.00 Build 0)  -->
<svg version="1.1" id="Layer_1" xmlns="http://www.w3.org/2000/svg" xmlns:xlink="http://www.w3.org/1999/xlink" x="0px" y="0px"
	 viewBox="0 0 465.8 202.6" style="enable-background:new 0 0 465.8 202.6;" xml:space="preserve">
<path d="M462.6,93.6C448,78.6,433.5,63.8,419,48.8c-2.9-3-6.1-4.3-10.2-4.2c-21.5,0.1-43,0-64.5,0.1c-2,0-3.3-0.8-4.8-2.1
	c-5.8-5.2-11.4-10.8-17.8-15.3c-23.7-16.9-50.6-25-79.4-26.8c-26.9-1.8-53,2.2-77.9,13c-18,7.8-33.9,18.6-46.5,33.7
	c-1.8,2.2-3.7,3.1-6.5,3.1c-18.4-0.1-36.8,0-55.3-0.1c-3.2,0-6,0.9-8.3,3.2C35.5,66,23.2,78.5,11,91.1c-3.1,3.2-6.2,6.3-9.1,9.7
	c-2.7,3.2-2.5,7.7,0,10.9c3.8,5,10.3,5.1,15,0.3C30.3,98.2,43.6,84.5,57,70.8c1-1,2.5-1.9,3.8-1.9c13.5-0.1,27-0.1,40.5-0.1
	c1.8,0,2.5,0.6,1.7,2.4c-2.9,7.1-4.9,14.5-5.5,22.2c-0.2,2.5-1.2,3.4-3.8,3.3c-12.5-0.1-25-0.1-37.5-0.1c-3.5,0-6.5,0.9-8.8,3.7
	c-10.2,12.6-20.5,25.2-30.7,37.8c-3.5,4.4-2.9,10.2,1.2,13.4c4.2,3.4,9.9,2.6,13.5-1.8c8.6-10.5,17.2-21,25.7-31.6
	c1.6-2,3.4-2.9,6-2.8c10.7,0.1,21.3,0.1,32,0c2.6,0,3.8,0.9,4.1,3.5c0.1,1.4,0.6,2.8,1.1,4.1c1.3,3.9,2.6,7.7,4.1,12
	c-1.3,0.1-2.2,0.1-3.1,0.1c-5.7,0-11.3,0.1-17,0c-3.9-0.1-6.7,1.6-8.8,4.7c-9.3,13.9-18.6,27.8-27.9,41.8c-2,3-2.6,6.1-1.3,9.5
	c1.4,3.5,4.2,5.4,7.8,5.8c4.2,0.4,7.1-1.8,9.3-5.2c7.9-11.9,15.9-23.9,23.8-35.8c1-1.5,2.1-2.1,3.9-2.1c6.7,0.1,13.3,0.2,20,0
	c3.6-0.1,6.6,0.4,8.5,3.7c0.6,1.1,1.6,1.9,2.5,2.8c19.3,20.1,43.2,31.8,70,37.8c34.2,7.7,67.9,5.6,100.7-7.3
	c21.9-8.6,40.7-21.6,55-40.6c0.8-1,2.4-1.8,3.7-1.8c7.7-0.2,15.5-0.1,23.2-0.1c1.7,0,2.8,0.5,3.7,1.9c4.4,6.8,8.9,13.5,13.4,20.2
	c3.7,5.5,7.3,11.1,11.1,16.6c4.1,6,12.5,5.8,16-0.3c1.9-3.4,1.7-6.9-0.5-10.2c-9.3-14-18.7-28-28-42c-2.1-3.2-5-5-9-4.9
	c-6.5,0.1-13,0-19.5,0c-2.5,0-2.7-0.4-2-2.9c1.2-4.7,2.5-9.3,3.4-14.1c0.4-1.9,1.1-2.6,3.1-2.6c12.5,0.1,25,0,37.5,0
	c1.7,0,2.9,0.5,4,1.9c8.7,10.8,17.4,21.5,26.2,32.2c1.1,1.3,2.5,2.5,4,3.3c3.7,1.8,8.5,0.7,10.9-2.4c2.9-3.6,3.1-8.4,0.1-12
	c-10-12.5-20.2-24.8-30.2-37.3c-2.6-3.2-5.7-4.6-9.7-4.5c-14.2,0.1-28.3,0-42.5,0.1c-2.2,0-3.3-0.6-3.6-3c-1.2-7.7-3.7-15-7.1-22
	c-1.3-2.6-1.1-3,1.8-3c15.6,0,31.2,0,46.7,0.1c1.3,0,2.9,0.8,3.9,1.7c7.4,7.4,14.7,15,22,22.5c6.2,6.3,12.3,12.7,18.5,19
	c2.5,2.5,5.3,4,9,3.2c3.7-0.8,6.2-3,7.3-6.7C466.5,99.3,465.2,96.2,462.6,93.6z M278.4,156.9c-11.9,10.4-26,14.3-41.6,11.5
	c-15.6-2.7-27-11.5-35.2-25.4c-12.1,19.1-29,28.5-51.5,25.7c-13.3-1.7-24.1-8.3-32.3-19c-16.2-21.1-12.8-51.1,8.1-68.2
	c11.9-9.8,25.8-13.2,41-10.3c15.2,2.9,26.4,11.7,34.6,25.4c10.9-17.8,26.2-27,46.7-26.3c13.5,0.5,25,6,34.2,16
	C301,106.8,299.4,138.6,278.4,156.9z"/>
<path id="left-eye" d="M165.2,138.5c7.4,9.9,20.7,10.6,28.9,1.4c9.5-10.6,9.7-29,0.4-39.8c-8.1-9.4-20.8-9.3-28.8,0.3
	c-4.7,5.7-6.5,12.4-6.7,19.6C159.2,126.9,161.1,133.1,165.2,138.5z"/>
<path id="right-eye" d="M214.7,138.4c7.2,9.7,19.9,10.8,28.3,2.4c10.5-10.5,10.8-30.7,0.5-41.5c-8.1-8.5-19.6-8.3-27.4,0.4
	c-5.2,5.7-7.2,12.6-7.2,20.2C208.8,127,210.7,133,214.7,138.4z"/>
</svg>
